# xmcd
#
# Track frame offsets:
#	150
#	8978
#	18391
#	28134
#	37352
#	47642
#	57212
#	67015
#	78513
#	88653
#	98996
#	105911
#
# Disc length: 1542 seconds
#
# Revision: 1
# Processed by: cddbd v1.5.2PL0 Copyright (c) Steve Scherf et al.
# Submitted via: audiograbber 1.83.01
#
DISCID=9a06040c
DTITLE=Porter Wagoner - The Blue Grass Story
DYEAR=1964
DGENRE=Country
TTITLE0=Country Music Has Gone To Town
TTITLE1=Blue Moon Of Kentucky
TTITLE2=Will You Be Lovin' Another Man
TTITLE3=Little Cabin Home In The Hills
TTITLE4=Uncle Pen
TTITLE5=I'll Meet You In Church Sunday Morning
TTITLE6=Howdy Neighbor, Howdy
TTITLE7=Before I Met You
TTITLE8=Cotton Fields
TTITLE9=I Wonder How The Old Folks Are At Home
TTITLE10=Head Over Heels In Love With You
TTITLE11=A Gathering In The Sky
EXTD=This is from an LP that i converted into a CD
EXTT0=
EXTT1=
EXTT2=
EXTT3=
EXTT4=
EXTT5=
EXTT6=
EXTT7=
EXTT8=
EXTT9=
EXTT10=
EXTT11=
PLAYORDER=
